<mxfile host="app.diagrams.net" modified="2022-05-27T07:32:29.124Z" agent="5.0 (Windows NT 10.0; Win64; x64) AppleWebKit/537.36 (KHTML, like Gecko) Chrome/101.0.4951.64 Safari/537.36 Edg/101.0.1210.53" etag="fDZtIfWqHz80aapYkwax" version="18.1.3" type="github">
  <diagram id="doW26T-CMRSeiIQzmsKS" name="Page-1">
    <mxGraphModel dx="633" dy="1579" grid="1" gridSize="10" guides="1" tooltips="1" connect="1" arrows="1" fold="1" page="1" pageScale="1" pageWidth="827" pageHeight="1169" math="0" shadow="0">
      <root>
        <mxCell id="0" />
        <mxCell id="1" parent="0" />
        <mxCell id="nTzvKom0a_UCRgKJAyW0-1" value="&lt;font face=&quot;Comic Sans MS&quot;&gt;ext2_get_block&lt;/font&gt;" style="rounded=1;whiteSpace=wrap;html=1;" parent="1" vertex="1">
          <mxGeometry x="140" y="240" width="120" height="60" as="geometry" />
        </mxCell>
        <mxCell id="nTzvKom0a_UCRgKJAyW0-2" value="" style="endArrow=classic;html=1;rounded=0;fontFamily=Comic Sans MS;exitX=0.5;exitY=1;exitDx=0;exitDy=0;entryX=0.5;entryY=0;entryDx=0;entryDy=0;" parent="1" source="nTzvKom0a_UCRgKJAyW0-1" target="nTzvKom0a_UCRgKJAyW0-3" edge="1">
          <mxGeometry width="50" height="50" relative="1" as="geometry">
            <mxPoint x="190" y="550" as="sourcePoint" />
            <mxPoint x="200" y="360" as="targetPoint" />
          </mxGeometry>
        </mxCell>
        <mxCell id="nTzvKom0a_UCRgKJAyW0-3" value="&lt;font face=&quot;Comic Sans MS&quot;&gt;ext2_get_blocks&lt;/font&gt;" style="rounded=1;whiteSpace=wrap;html=1;" parent="1" vertex="1">
          <mxGeometry x="140" y="340" width="120" height="60" as="geometry" />
        </mxCell>
        <mxCell id="nTzvKom0a_UCRgKJAyW0-4" value="&lt;font face=&quot;Comic Sans MS&quot;&gt;ext2_block_to_path&lt;/font&gt;" style="rounded=1;whiteSpace=wrap;html=1;" parent="1" vertex="1">
          <mxGeometry x="20" y="470" width="120" height="60" as="geometry" />
        </mxCell>
        <mxCell id="nTzvKom0a_UCRgKJAyW0-6" value="&lt;font face=&quot;Comic Sans MS&quot;&gt;ext2_get_branch&lt;/font&gt;" style="rounded=1;whiteSpace=wrap;html=1;" parent="1" vertex="1">
          <mxGeometry x="170" y="470" width="120" height="60" as="geometry" />
        </mxCell>
        <mxCell id="nTzvKom0a_UCRgKJAyW0-11" value="" style="edgeStyle=elbowEdgeStyle;elbow=vertical;endArrow=classic;html=1;rounded=0;fontFamily=Comic Sans MS;exitX=0.5;exitY=1;exitDx=0;exitDy=0;entryX=0.5;entryY=0;entryDx=0;entryDy=0;" parent="1" source="nTzvKom0a_UCRgKJAyW0-3" target="nTzvKom0a_UCRgKJAyW0-6" edge="1">
          <mxGeometry width="50" height="50" relative="1" as="geometry">
            <mxPoint x="220" y="460" as="sourcePoint" />
            <mxPoint x="270" y="410" as="targetPoint" />
          </mxGeometry>
        </mxCell>
        <mxCell id="nTzvKom0a_UCRgKJAyW0-12" value="&lt;font face=&quot;Comic Sans MS&quot;&gt;ext2_find_goal&lt;/font&gt;" style="rounded=1;whiteSpace=wrap;html=1;" parent="1" vertex="1">
          <mxGeometry x="320" y="470" width="120" height="60" as="geometry" />
        </mxCell>
        <mxCell id="nTzvKom0a_UCRgKJAyW0-13" value="" style="edgeStyle=elbowEdgeStyle;elbow=vertical;endArrow=classic;html=1;rounded=0;fontFamily=Comic Sans MS;exitX=0.5;exitY=1;exitDx=0;exitDy=0;entryX=0.5;entryY=0;entryDx=0;entryDy=0;" parent="1" source="nTzvKom0a_UCRgKJAyW0-3" target="nTzvKom0a_UCRgKJAyW0-12" edge="1">
          <mxGeometry width="50" height="50" relative="1" as="geometry">
            <mxPoint x="280" y="510" as="sourcePoint" />
            <mxPoint x="330" y="460" as="targetPoint" />
          </mxGeometry>
        </mxCell>
        <mxCell id="nTzvKom0a_UCRgKJAyW0-14" value="" style="edgeStyle=elbowEdgeStyle;elbow=vertical;endArrow=classic;html=1;rounded=0;fontFamily=Comic Sans MS;exitX=0.5;exitY=1;exitDx=0;exitDy=0;entryX=0.5;entryY=0;entryDx=0;entryDy=0;" parent="1" source="nTzvKom0a_UCRgKJAyW0-3" target="nTzvKom0a_UCRgKJAyW0-4" edge="1">
          <mxGeometry width="50" height="50" relative="1" as="geometry">
            <mxPoint x="120" y="690" as="sourcePoint" />
            <mxPoint x="170" y="640" as="targetPoint" />
          </mxGeometry>
        </mxCell>
        <mxCell id="nTzvKom0a_UCRgKJAyW0-15" value="&lt;font face=&quot;Comic Sans MS&quot;&gt;ext2_blks_to_allocate&lt;/font&gt;" style="rounded=1;whiteSpace=wrap;html=1;" parent="1" vertex="1">
          <mxGeometry x="480" y="470" width="140" height="60" as="geometry" />
        </mxCell>
        <mxCell id="nTzvKom0a_UCRgKJAyW0-16" value="&lt;font face=&quot;Comic Sans MS&quot;&gt;ext2_alloc_branch&lt;/font&gt;" style="rounded=1;whiteSpace=wrap;html=1;" parent="1" vertex="1">
          <mxGeometry x="540" y="580" width="120" height="60" as="geometry" />
        </mxCell>
        <mxCell id="nTzvKom0a_UCRgKJAyW0-17" value="&lt;font face=&quot;Comic Sans MS&quot;&gt;ext2_splice_branch&lt;/font&gt;" style="rounded=1;whiteSpace=wrap;html=1;" parent="1" vertex="1">
          <mxGeometry x="680" y="580" width="120" height="60" as="geometry" />
        </mxCell>
        <mxCell id="nTzvKom0a_UCRgKJAyW0-18" value="" style="edgeStyle=elbowEdgeStyle;elbow=vertical;endArrow=classic;html=1;rounded=0;fontFamily=Comic Sans MS;entryX=0.5;entryY=0;entryDx=0;entryDy=0;exitX=0.5;exitY=1;exitDx=0;exitDy=0;" parent="1" source="nTzvKom0a_UCRgKJAyW0-3" target="nTzvKom0a_UCRgKJAyW0-15" edge="1">
          <mxGeometry width="50" height="50" relative="1" as="geometry">
            <mxPoint x="510" y="460" as="sourcePoint" />
            <mxPoint x="560" y="410" as="targetPoint" />
          </mxGeometry>
        </mxCell>
        <mxCell id="nTzvKom0a_UCRgKJAyW0-25" value="" style="edgeStyle=elbowEdgeStyle;elbow=vertical;endArrow=classic;html=1;rounded=0;fontFamily=Comic Sans MS;exitX=0.5;exitY=1;exitDx=0;exitDy=0;" parent="1" source="nTzvKom0a_UCRgKJAyW0-3" edge="1">
          <mxGeometry width="50" height="50" relative="1" as="geometry">
            <mxPoint x="180" y="400" as="sourcePoint" />
            <mxPoint x="670" y="470" as="targetPoint" />
          </mxGeometry>
        </mxCell>
        <mxCell id="nTzvKom0a_UCRgKJAyW0-26" value="" style="edgeStyle=elbowEdgeStyle;elbow=vertical;endArrow=classic;html=1;rounded=0;fontFamily=Comic Sans MS;entryX=0.5;entryY=0;entryDx=0;entryDy=0;" parent="1" target="nTzvKom0a_UCRgKJAyW0-16" edge="1">
          <mxGeometry width="50" height="50" relative="1" as="geometry">
            <mxPoint x="670" y="470" as="sourcePoint" />
            <mxPoint x="740" y="420" as="targetPoint" />
            <Array as="points">
              <mxPoint x="610" y="550" />
              <mxPoint x="690" y="550" />
              <mxPoint x="630" y="560" />
            </Array>
          </mxGeometry>
        </mxCell>
        <mxCell id="nTzvKom0a_UCRgKJAyW0-27" value="" style="edgeStyle=segmentEdgeStyle;endArrow=classic;html=1;rounded=0;fontFamily=Comic Sans MS;entryX=0.5;entryY=0;entryDx=0;entryDy=0;" parent="1" target="nTzvKom0a_UCRgKJAyW0-17" edge="1">
          <mxGeometry width="50" height="50" relative="1" as="geometry">
            <mxPoint x="670" y="550" as="sourcePoint" />
            <mxPoint x="750" y="590" as="targetPoint" />
          </mxGeometry>
        </mxCell>
        <mxCell id="nTzvKom0a_UCRgKJAyW0-28" value="&lt;font face=&quot;Comic Sans MS&quot;&gt;add_chain&lt;/font&gt;" style="rounded=1;whiteSpace=wrap;html=1;" parent="1" vertex="1">
          <mxGeometry x="100" y="580" width="90" height="60" as="geometry" />
        </mxCell>
        <mxCell id="nTzvKom0a_UCRgKJAyW0-29" value="&lt;font face=&quot;Comic Sans MS&quot;&gt;sb_bread&lt;/font&gt;" style="rounded=1;whiteSpace=wrap;html=1;" parent="1" vertex="1">
          <mxGeometry x="220" y="580" width="90" height="60" as="geometry" />
        </mxCell>
        <mxCell id="nTzvKom0a_UCRgKJAyW0-30" value="" style="edgeStyle=elbowEdgeStyle;elbow=vertical;endArrow=classic;html=1;rounded=0;fontFamily=Comic Sans MS;exitX=0.5;exitY=1;exitDx=0;exitDy=0;entryX=0.5;entryY=0;entryDx=0;entryDy=0;" parent="1" source="nTzvKom0a_UCRgKJAyW0-6" target="nTzvKom0a_UCRgKJAyW0-28" edge="1">
          <mxGeometry width="50" height="50" relative="1" as="geometry">
            <mxPoint x="180" y="740" as="sourcePoint" />
            <mxPoint x="230" y="690" as="targetPoint" />
          </mxGeometry>
        </mxCell>
        <mxCell id="nTzvKom0a_UCRgKJAyW0-31" value="" style="edgeStyle=elbowEdgeStyle;elbow=vertical;endArrow=classic;html=1;rounded=0;fontFamily=Comic Sans MS;exitX=0.5;exitY=1;exitDx=0;exitDy=0;entryX=0.5;entryY=0;entryDx=0;entryDy=0;" parent="1" source="nTzvKom0a_UCRgKJAyW0-6" target="nTzvKom0a_UCRgKJAyW0-29" edge="1">
          <mxGeometry width="50" height="50" relative="1" as="geometry">
            <mxPoint x="210" y="730" as="sourcePoint" />
            <mxPoint x="260" y="680" as="targetPoint" />
          </mxGeometry>
        </mxCell>
        <mxCell id="nTzvKom0a_UCRgKJAyW0-32" value="&lt;font face=&quot;Comic Sans MS&quot;&gt;ext2_alloc_blocks&lt;/font&gt;" style="rounded=1;whiteSpace=wrap;html=1;" parent="1" vertex="1">
          <mxGeometry x="190" y="700" width="110" height="60" as="geometry" />
        </mxCell>
        <mxCell id="nTzvKom0a_UCRgKJAyW0-33" value="&lt;font face=&quot;Comic Sans MS&quot;&gt;sb_getblk&lt;/font&gt;" style="rounded=1;whiteSpace=wrap;html=1;" parent="1" vertex="1">
          <mxGeometry x="355" y="700" width="85" height="60" as="geometry" />
        </mxCell>
        <mxCell id="nTzvKom0a_UCRgKJAyW0-34" value="&lt;font face=&quot;Comic Sans MS&quot;&gt;set_buffer_uptodate&lt;/font&gt;" style="rounded=1;whiteSpace=wrap;html=1;" parent="1" vertex="1">
          <mxGeometry x="330" y="910" width="135" height="60" as="geometry" />
        </mxCell>
        <mxCell id="nTzvKom0a_UCRgKJAyW0-35" value="&lt;font face=&quot;Comic Sans MS&quot;&gt;mark_buffer_dirty_inode&lt;/font&gt;" style="rounded=1;whiteSpace=wrap;html=1;" parent="1" vertex="1">
          <mxGeometry x="490" y="910" width="160" height="60" as="geometry" />
        </mxCell>
        <mxCell id="nTzvKom0a_UCRgKJAyW0-36" value="" style="edgeStyle=elbowEdgeStyle;elbow=vertical;endArrow=classic;html=1;rounded=0;fontFamily=Comic Sans MS;exitX=0.5;exitY=1;exitDx=0;exitDy=0;entryX=0.5;entryY=0;entryDx=0;entryDy=0;" parent="1" source="nTzvKom0a_UCRgKJAyW0-16" target="nTzvKom0a_UCRgKJAyW0-32" edge="1">
          <mxGeometry width="50" height="50" relative="1" as="geometry">
            <mxPoint x="430" y="710" as="sourcePoint" />
            <mxPoint x="480" y="660" as="targetPoint" />
          </mxGeometry>
        </mxCell>
        <mxCell id="nTzvKom0a_UCRgKJAyW0-37" value="" style="edgeStyle=elbowEdgeStyle;elbow=vertical;endArrow=classic;html=1;rounded=0;fontFamily=Comic Sans MS;exitX=0.5;exitY=1;exitDx=0;exitDy=0;entryX=0.5;entryY=0;entryDx=0;entryDy=0;" parent="1" source="nTzvKom0a_UCRgKJAyW0-16" target="nTzvKom0a_UCRgKJAyW0-33" edge="1">
          <mxGeometry width="50" height="50" relative="1" as="geometry">
            <mxPoint x="430" y="590" as="sourcePoint" />
            <mxPoint x="480" y="540" as="targetPoint" />
          </mxGeometry>
        </mxCell>
        <mxCell id="nTzvKom0a_UCRgKJAyW0-45" value="Success?&amp;nbsp;" style="html=1;whiteSpace=wrap;aspect=fixed;shape=isoRectangle;fontFamily=Comic Sans MS;" parent="1" vertex="1">
          <mxGeometry x="339.16999999999996" y="800" width="116.67" height="70" as="geometry" />
        </mxCell>
        <mxCell id="nTzvKom0a_UCRgKJAyW0-51" value="" style="endArrow=classic;html=1;rounded=0;fontFamily=Comic Sans MS;exitX=0.5;exitY=1;exitDx=0;exitDy=0;entryX=0.501;entryY=-0.027;entryDx=0;entryDy=0;entryPerimeter=0;" parent="1" source="nTzvKom0a_UCRgKJAyW0-33" target="nTzvKom0a_UCRgKJAyW0-45" edge="1">
          <mxGeometry width="50" height="50" relative="1" as="geometry">
            <mxPoint x="480" y="810" as="sourcePoint" />
            <mxPoint x="530" y="760" as="targetPoint" />
          </mxGeometry>
        </mxCell>
        <mxCell id="nTzvKom0a_UCRgKJAyW0-52" value="" style="edgeStyle=elbowEdgeStyle;elbow=vertical;endArrow=classic;html=1;rounded=0;fontFamily=Comic Sans MS;exitX=0.501;exitY=0.992;exitDx=0;exitDy=0;exitPerimeter=0;entryX=0.5;entryY=0;entryDx=0;entryDy=0;" parent="1" source="nTzvKom0a_UCRgKJAyW0-45" target="nTzvKom0a_UCRgKJAyW0-34" edge="1">
          <mxGeometry width="50" height="50" relative="1" as="geometry">
            <mxPoint x="450" y="1080" as="sourcePoint" />
            <mxPoint x="500" y="1030" as="targetPoint" />
          </mxGeometry>
        </mxCell>
        <mxCell id="nTzvKom0a_UCRgKJAyW0-53" value="" style="edgeStyle=elbowEdgeStyle;elbow=vertical;endArrow=classic;html=1;rounded=0;fontFamily=Comic Sans MS;entryX=0.5;entryY=0;entryDx=0;entryDy=0;exitX=0.501;exitY=0.955;exitDx=0;exitDy=0;exitPerimeter=0;" parent="1" source="nTzvKom0a_UCRgKJAyW0-45" target="nTzvKom0a_UCRgKJAyW0-35" edge="1">
          <mxGeometry width="50" height="50" relative="1" as="geometry">
            <mxPoint x="397" y="870" as="sourcePoint" />
            <mxPoint x="590" y="860" as="targetPoint" />
          </mxGeometry>
        </mxCell>
        <mxCell id="nTzvKom0a_UCRgKJAyW0-54" value="" style="endArrow=classic;html=1;rounded=0;fontFamily=Comic Sans MS;exitX=0.993;exitY=0.507;exitDx=0;exitDy=0;exitPerimeter=0;entryX=0;entryY=0.5;entryDx=0;entryDy=0;" parent="1" source="nTzvKom0a_UCRgKJAyW0-45" target="nTzvKom0a_UCRgKJAyW0-57" edge="1">
          <mxGeometry width="50" height="50" relative="1" as="geometry">
            <mxPoint x="500" y="850" as="sourcePoint" />
            <mxPoint x="550" y="835" as="targetPoint" />
          </mxGeometry>
        </mxCell>
        <mxCell id="nTzvKom0a_UCRgKJAyW0-55" value="Error" style="text;html=1;strokeColor=none;fillColor=none;align=center;verticalAlign=middle;whiteSpace=wrap;rounded=0;fontFamily=Comic Sans MS;" parent="1" vertex="1">
          <mxGeometry x="470" y="805" width="45" height="20" as="geometry" />
        </mxCell>
        <mxCell id="nTzvKom0a_UCRgKJAyW0-57" value="&lt;font face=&quot;Comic Sans MS&quot;&gt;ext2_free_blocks&lt;/font&gt;" style="rounded=1;whiteSpace=wrap;html=1;" parent="1" vertex="1">
          <mxGeometry x="532.5" y="805" width="135" height="60" as="geometry" />
        </mxCell>
        <mxCell id="nTzvKom0a_UCRgKJAyW0-58" value="Yes" style="text;html=1;strokeColor=none;fillColor=none;align=center;verticalAlign=middle;whiteSpace=wrap;rounded=0;fontFamily=Comic Sans MS;" parent="1" vertex="1">
          <mxGeometry x="420" y="865" width="60" height="30" as="geometry" />
        </mxCell>
        <mxCell id="1KnFtg2LZ5hgDKgAq6X3-1" value="&lt;font face=&quot;Comic Sans MS&quot;&gt;ext2_new_blocks&lt;/font&gt;" style="rounded=1;whiteSpace=wrap;html=1;" vertex="1" parent="1">
          <mxGeometry x="80" y="800" width="110" height="60" as="geometry" />
        </mxCell>
        <mxCell id="1KnFtg2LZ5hgDKgAq6X3-2" value="" style="edgeStyle=elbowEdgeStyle;elbow=vertical;endArrow=classic;html=1;rounded=0;exitX=0.5;exitY=1;exitDx=0;exitDy=0;entryX=1;entryY=0.5;entryDx=0;entryDy=0;" edge="1" parent="1" source="nTzvKom0a_UCRgKJAyW0-32" target="1KnFtg2LZ5hgDKgAq6X3-1">
          <mxGeometry width="50" height="50" relative="1" as="geometry">
            <mxPoint x="210" y="940" as="sourcePoint" />
            <mxPoint x="260" y="890" as="targetPoint" />
            <Array as="points">
              <mxPoint x="230" y="830" />
            </Array>
          </mxGeometry>
        </mxCell>
        <mxCell id="1KnFtg2LZ5hgDKgAq6X3-7" value="" style="endArrow=none;html=1;rounded=0;" edge="1" parent="1">
          <mxGeometry width="50" height="50" relative="1" as="geometry">
            <mxPoint x="245" y="890" as="sourcePoint" />
            <mxPoint x="244.8" y="830" as="targetPoint" />
          </mxGeometry>
        </mxCell>
        <mxCell id="1KnFtg2LZ5hgDKgAq6X3-8" value="" style="edgeStyle=elbowEdgeStyle;elbow=horizontal;endArrow=classic;html=1;rounded=0;" edge="1" parent="1">
          <mxGeometry width="50" height="50" relative="1" as="geometry">
            <mxPoint x="240" y="890" as="sourcePoint" />
            <mxPoint x="250" y="800" as="targetPoint" />
            <Array as="points">
              <mxPoint x="310" y="860" />
            </Array>
          </mxGeometry>
        </mxCell>
        <mxCell id="1KnFtg2LZ5hgDKgAq6X3-10" value="Loop Allocation" style="text;html=1;strokeColor=none;fillColor=none;align=center;verticalAlign=middle;whiteSpace=wrap;rounded=0;" vertex="1" parent="1">
          <mxGeometry x="250" y="860" width="60" height="30" as="geometry" />
        </mxCell>
      </root>
    </mxGraphModel>
  </diagram>
</mxfile>
